<mxfile host="app.diagrams.net" agent="Mozilla/5.0 (Windows NT 10.0; Win64; x64) AppleWebKit/537.36 (KHTML, like Gecko) Chrome/140.0.0.0 Safari/537.36 Edg/140.0.0.0" version="28.2.2">
  <diagram name="ページ1" id="1tnOkgWYmP6De1YvosDi">
    <mxGraphModel dx="1017" dy="426" grid="1" gridSize="10" guides="1" tooltips="1" connect="1" arrows="1" fold="1" page="1" pageScale="1" pageWidth="827" pageHeight="1169" math="0" shadow="0">
      <root>
        <mxCell id="0" />
        <mxCell id="1" parent="0" />
        <mxCell id="wtjSu2AIHbloldCeV-42-1" value="ユーザー" style="shape=umlActor;verticalLabelPosition=bottom;verticalAlign=top;html=1;outlineConnect=0;" parent="1" vertex="1">
          <mxGeometry x="30" y="170" width="50" height="80" as="geometry" />
        </mxCell>
        <mxCell id="wtjSu2AIHbloldCeV-42-2" value="RoboDog&lt;div&gt;システムメニュー&lt;/div&gt;" style="shape=umlBoundary;whiteSpace=wrap;html=1;fillColor=light-dark(#FFFFFF,#006600);" parent="1" vertex="1">
          <mxGeometry x="160" y="50" width="120" height="90" as="geometry" />
        </mxCell>
        <mxCell id="wtjSu2AIHbloldCeV-42-3" value="名前の変更画面" style="shape=umlBoundary;whiteSpace=wrap;html=1;fillColor=light-dark(#FFFFFF,#006600);" parent="1" vertex="1">
          <mxGeometry x="160" y="220" width="120" height="90" as="geometry" />
        </mxCell>
        <mxCell id="wtjSu2AIHbloldCeV-42-4" value="変更結果の表示" style="shape=umlBoundary;whiteSpace=wrap;html=1;fillColor=light-dark(#FFFFFF,#006600);" parent="1" vertex="1">
          <mxGeometry x="190" y="430" width="120" height="90" as="geometry" />
        </mxCell>
        <mxCell id="wtjSu2AIHbloldCeV-42-5" value="新しい名前を変更&lt;div&gt;を入力する&lt;/div&gt;" style="ellipse;shape=umlControl;whiteSpace=wrap;html=1;fillColor=light-dark(#FFFFFF,#660000);" parent="1" vertex="1">
          <mxGeometry x="400" y="220" width="100" height="110" as="geometry" />
        </mxCell>
        <mxCell id="wtjSu2AIHbloldCeV-42-6" value="名前の変更画面の&lt;div&gt;表示する&lt;/div&gt;" style="ellipse;shape=umlControl;whiteSpace=wrap;html=1;fillColor=light-dark(#FFFFFF,#660000);" parent="1" vertex="1">
          <mxGeometry x="400" y="90" width="100" height="110" as="geometry" />
        </mxCell>
        <mxCell id="wtjSu2AIHbloldCeV-42-7" value="変更した名前&lt;div&gt;の&lt;span style=&quot;background-color: transparent; color: light-dark(rgb(0, 0, 0), rgb(255, 255, 255));&quot;&gt;表示する&lt;/span&gt;&lt;/div&gt;" style="ellipse;shape=umlControl;whiteSpace=wrap;html=1;fillColor=light-dark(#FFFFFF,#990000);" parent="1" vertex="1">
          <mxGeometry x="380" y="390" width="100" height="110" as="geometry" />
        </mxCell>
        <mxCell id="wtjSu2AIHbloldCeV-42-8" value="RoboDog" style="ellipse;shape=umlEntity;whiteSpace=wrap;html=1;fillColor=light-dark(#FFFFFF,#000066);" parent="1" vertex="1">
          <mxGeometry x="600" y="150" width="90" height="90" as="geometry" />
        </mxCell>
        <mxCell id="wtjSu2AIHbloldCeV-42-9" value="" style="endArrow=diamondThin;endFill=1;endSize=24;html=1;rounded=0;exitX=1;exitY=0.3333333333333333;exitDx=0;exitDy=0;exitPerimeter=0;entryX=-0.031;entryY=0.459;entryDx=0;entryDy=0;entryPerimeter=0;" parent="1" source="wtjSu2AIHbloldCeV-42-1" target="wtjSu2AIHbloldCeV-42-3" edge="1">
          <mxGeometry width="160" relative="1" as="geometry">
            <mxPoint x="270" y="270" as="sourcePoint" />
            <mxPoint x="430" y="270" as="targetPoint" />
          </mxGeometry>
        </mxCell>
        <mxCell id="wtjSu2AIHbloldCeV-42-10" value="" style="endArrow=diamondThin;endFill=1;endSize=24;html=1;rounded=0;exitX=0.47;exitY=1;exitDx=0;exitDy=0;exitPerimeter=0;entryX=0.57;entryY=0.127;entryDx=0;entryDy=0;entryPerimeter=0;" parent="1" source="wtjSu2AIHbloldCeV-42-5" target="wtjSu2AIHbloldCeV-42-7" edge="1">
          <mxGeometry width="160" relative="1" as="geometry">
            <mxPoint x="330" y="220" as="sourcePoint" />
            <mxPoint x="490" y="220" as="targetPoint" />
          </mxGeometry>
        </mxCell>
        <mxCell id="wtjSu2AIHbloldCeV-42-11" value="" style="endArrow=diamondThin;endFill=1;endSize=24;html=1;rounded=0;exitX=-0.01;exitY=0.673;exitDx=0;exitDy=0;exitPerimeter=0;entryX=0.986;entryY=0.481;entryDx=0;entryDy=0;entryPerimeter=0;" parent="1" source="wtjSu2AIHbloldCeV-42-7" target="wtjSu2AIHbloldCeV-42-4" edge="1">
          <mxGeometry width="160" relative="1" as="geometry">
            <mxPoint x="330" y="220" as="sourcePoint" />
            <mxPoint x="490" y="220" as="targetPoint" />
          </mxGeometry>
        </mxCell>
        <mxCell id="wtjSu2AIHbloldCeV-42-13" value="" style="endArrow=diamondThin;endFill=1;endSize=24;html=1;rounded=0;exitX=1.025;exitY=0.504;exitDx=0;exitDy=0;exitPerimeter=0;entryX=0;entryY=0.455;entryDx=0;entryDy=0;entryPerimeter=0;" parent="1" source="wtjSu2AIHbloldCeV-42-3" target="wtjSu2AIHbloldCeV-42-5" edge="1">
          <mxGeometry width="160" relative="1" as="geometry">
            <mxPoint x="330" y="220" as="sourcePoint" />
            <mxPoint x="490" y="220" as="targetPoint" />
          </mxGeometry>
        </mxCell>
        <mxCell id="wtjSu2AIHbloldCeV-42-15" value="" style="endArrow=diamondThin;endFill=1;endSize=24;html=1;rounded=0;exitX=1;exitY=0.3333333333333333;exitDx=0;exitDy=0;exitPerimeter=0;entryX=0.014;entryY=0.489;entryDx=0;entryDy=0;entryPerimeter=0;" parent="1" source="wtjSu2AIHbloldCeV-42-1" target="wtjSu2AIHbloldCeV-42-2" edge="1">
          <mxGeometry width="160" relative="1" as="geometry">
            <mxPoint x="330" y="220" as="sourcePoint" />
            <mxPoint x="490" y="220" as="targetPoint" />
          </mxGeometry>
        </mxCell>
        <mxCell id="wtjSu2AIHbloldCeV-42-16" value="" style="endArrow=block;startArrow=block;endFill=1;startFill=1;html=1;rounded=0;exitX=1.003;exitY=0.679;exitDx=0;exitDy=0;exitPerimeter=0;entryX=0.019;entryY=0.4;entryDx=0;entryDy=0;entryPerimeter=0;" parent="1" source="wtjSu2AIHbloldCeV-42-6" target="wtjSu2AIHbloldCeV-42-8" edge="1">
          <mxGeometry width="160" relative="1" as="geometry">
            <mxPoint x="530" y="110" as="sourcePoint" />
            <mxPoint x="690" y="110" as="targetPoint" />
          </mxGeometry>
        </mxCell>
        <mxCell id="wtjSu2AIHbloldCeV-42-17" value="" style="endArrow=block;startArrow=block;endFill=1;startFill=1;html=1;rounded=0;exitX=1.01;exitY=0.521;exitDx=0;exitDy=0;exitPerimeter=0;entryX=0;entryY=1;entryDx=0;entryDy=0;" parent="1" source="wtjSu2AIHbloldCeV-42-5" target="wtjSu2AIHbloldCeV-42-8" edge="1">
          <mxGeometry width="160" relative="1" as="geometry">
            <mxPoint x="550" y="279.99999999999994" as="sourcePoint" />
            <mxPoint x="673.98" y="316.02000000000004" as="targetPoint" />
          </mxGeometry>
        </mxCell>
        <mxCell id="wtjSu2AIHbloldCeV-42-18" value="名前の変更を選択" style="text;html=1;align=center;verticalAlign=middle;whiteSpace=wrap;rounded=0;" parent="1" vertex="1">
          <mxGeometry x="60" y="130" width="100" height="60" as="geometry" />
        </mxCell>
        <mxCell id="wtjSu2AIHbloldCeV-42-19" value="名前を入力" style="text;html=1;align=center;verticalAlign=middle;whiteSpace=wrap;rounded=0;" parent="1" vertex="1">
          <mxGeometry x="290" y="230" width="80" height="30" as="geometry" />
        </mxCell>
        <mxCell id="wtjSu2AIHbloldCeV-42-20" value="変更ボタンを押す" style="text;html=1;align=center;verticalAlign=middle;whiteSpace=wrap;rounded=0;" parent="1" vertex="1">
          <mxGeometry x="440" y="350" width="110" height="30" as="geometry" />
        </mxCell>
        <mxCell id="wtjSu2AIHbloldCeV-42-21" value="" style="endArrow=diamondThin;endFill=1;endSize=24;html=1;rounded=0;exitX=0.33;exitY=0.948;exitDx=0;exitDy=0;exitPerimeter=0;entryX=0.892;entryY=0.137;entryDx=0;entryDy=0;entryPerimeter=0;" parent="1" source="wtjSu2AIHbloldCeV-42-6" target="wtjSu2AIHbloldCeV-42-3" edge="1">
          <mxGeometry width="160" relative="1" as="geometry">
            <mxPoint x="380" y="123" as="sourcePoint" />
            <mxPoint x="462" y="20" as="targetPoint" />
          </mxGeometry>
        </mxCell>
        <mxCell id="wtjSu2AIHbloldCeV-42-22" value="" style="endArrow=diamondThin;endFill=1;endSize=24;html=1;rounded=0;exitX=0.997;exitY=0.607;exitDx=0;exitDy=0;exitPerimeter=0;entryX=0;entryY=0.455;entryDx=0;entryDy=0;entryPerimeter=0;" parent="1" source="wtjSu2AIHbloldCeV-42-2" target="wtjSu2AIHbloldCeV-42-6" edge="1">
          <mxGeometry width="160" relative="1" as="geometry">
            <mxPoint x="350" y="173" as="sourcePoint" />
            <mxPoint x="432" y="70" as="targetPoint" />
          </mxGeometry>
        </mxCell>
      </root>
    </mxGraphModel>
  </diagram>
</mxfile>
